# xmcd
#
# Track frame offsets:
#	150
#	17445
#	31407
#	53277
#	71605
#	84003
#	97013
#	111770
#	125883
#	145132
#	166433
#	180221
#
# Disc length: 2591 seconds
#
# Revision: 1
# Processed by: cddbd v1.5.2PL0 Copyright (c) Steve Scherf et al.
# Submitted via: audiograbber 1.82.02
#
DISCID=8f0a1d0c
DTITLE=Brian Letton - Many Sides Of Brian Letton
DYEAR=2000
DGENRE=Country
TTITLE0=A Stones Throw From You
TTITLE1=This Lands A Part Of You And Me
TTITLE2=A Picture Of The Bush
TTITLE3=Beautiful Dreamer
TTITLE4=Where Legendary Stockman Ride
TTITLE5=In His Loving Care
TTITLE6=In The Arms Of A Memory
TTITLE7=The Wheels Of Cobb and Co
TTITLE8=Only A Memory Will Last
TTITLE9=Granny Adeline
TTITLE10=Sing Away Your Troubles
TTITLE11=You'll Never Walk Alone
EXTD=
EXTT0=
EXTT1=
EXTT2=
EXTT3=
EXTT4=
EXTT5=
EXTT6=
EXTT7=
EXTT8=
EXTT9=
EXTT10=
EXTT11=
PLAYORDER=
